# xmcd
#
# Track frame offsets: 
#        150
#        15229
#        29704
#        50284
#        62287
#        77754
#        91849
#        103173
#        123153
#        137492
#        152021
#        163389
#        178557
#        192735
#        205547
#        215459
#        231234
#        244708
#        259677
#        271516
#        284333
#
# Disc length: 3966 seconds
#
# Revision: 4
# Processed by: cddbd v1.5.2PL0 Copyright (c) Steve Scherf et al.
# Submitted via: ExactAudioCopy v0.99pb4
#
DISCID=190f7c15
DTITLE=Fats Waller - Keepin' Out Of Mischief Now  [CD 2-10]
DYEAR=2005
DGENRE=Swing
TTITLE0=Sweet Heartache  (Vocal)
TTITLE1=Sweet Heartache  (Instr.)
TTITLE2=Honeysuckle Rose
TTITLE3=(You Know It All)  Smarty
TTITLE4=Don't You Know Or Don't You Care ¿
TTITLE5=Lost Love
TTITLE6=I'm Gonna Put You In Your Place  (And Your Place Is In My Arms
TTITLE6=)
TTITLE7=Blue, Turning Grey Over You
TTITLE8=Keepin' Out Of Mischief Now  (1937)
TTITLE9=Stardust
TTITLE10=Basin Street Blues
TTITLE11=Tea For Two
TTITLE12=I Ain't Got Nobody
TTITLE13=You've Got Me Under Your Thumb
TTITLE14=Beat It Out
TTITLE15=Our Love Was Meant To Be
TTITLE16=I'd Rather Call You Baby
TTITLE17=I'm Always In The Mood For You
TTITLE18=She's Tall, She's Thin, She's Terrific
TTITLE19=You're My Dish
TTITLE20=More Power To You
EXTD=
EXTT0=
EXTT1=
EXTT2=
EXTT3=
EXTT4=
EXTT5=
EXTT6=
EXTT7=
EXTT8=
EXTT9=
EXTT10=
EXTT11=
EXTT12=
EXTT13=
EXTT14=
EXTT15=
EXTT16=
EXTT17=
EXTT18=
EXTT19=
EXTT20=
PLAYORDER=
